<svg width="34" height="34" viewBox="0 0 34 34" fill="none" xmlns="http://www.w3.org/2000/svg">
<path d="M31.1241 25.9675C31.1241 26.4775 31.0108 27.0017 30.7699 27.5117C30.5291 28.0217 30.2174 28.5034 29.8066 28.9567C29.1124 29.7217 28.3474 30.2742 27.4833 30.6284C26.6333 30.9825 25.7124 31.1667 24.7208 31.1667C23.2758 31.1667 21.7316 30.8267 20.1024 30.1325C18.4733 29.4384 16.8441 28.5034 15.2291 27.3275C13.5999 26.1375 12.0558 24.82 10.5824 23.3609C9.12325 21.8875 7.80575 20.3434 6.62992 18.7284C5.46825 17.1134 4.53325 15.4984 3.85325 13.8975C3.17325 12.2825 2.83325 10.7384 2.83325 9.26504C2.83325 8.30171 3.00325 7.38087 3.34325 6.53087C3.68325 5.66671 4.22159 4.87337 4.97242 4.16504C5.87909 3.27254 6.87075 2.83337 7.91909 2.83337C8.31575 2.83337 8.71242 2.91837 9.06659 3.08837C9.43492 3.25837 9.76075 3.51337 10.0158 3.88171L13.3024 8.51421C13.5574 8.86837 13.7416 9.19421 13.8691 9.50587C13.9966 9.80337 14.0674 10.1009 14.0674 10.37C14.0674 10.71 13.9683 11.05 13.7699 11.3759C13.5858 11.7017 13.3166 12.0417 12.9766 12.3817L11.8999 13.5009C11.7441 13.6567 11.6733 13.8409 11.6733 14.0675C11.6733 14.1809 11.6874 14.28 11.7158 14.3934C11.7583 14.5067 11.8008 14.5917 11.8291 14.6767C12.0841 15.1442 12.5233 15.7534 13.1466 16.49C13.7841 17.2267 14.4641 17.9775 15.2008 18.7284C15.9658 19.4792 16.7024 20.1734 17.4533 20.8109C18.1899 21.4342 18.7991 21.8592 19.2808 22.1142C19.3516 22.1425 19.4366 22.185 19.5358 22.2275C19.6491 22.27 19.7624 22.2842 19.8899 22.2842C20.1308 22.2842 20.3149 22.1992 20.4708 22.0434L21.5474 20.9809C21.9016 20.6267 22.2416 20.3575 22.5674 20.1875C22.8933 19.9892 23.2191 19.89 23.5733 19.89C23.8424 19.89 24.1258 19.9467 24.4374 20.0742C24.7491 20.2017 25.0749 20.3859 25.4291 20.6267L30.1183 23.9559C30.4866 24.2109 30.7416 24.5084 30.8974 24.8625C31.0391 25.2167 31.1241 25.5709 31.1241 25.9675Z" stroke="#FF004A" stroke-width="1.5" stroke-miterlimit="10"/>
<path d="M26.2083 12.75C26.2083 11.9 25.5425 10.5966 24.5508 9.53413C23.6442 8.55663 22.44 7.79163 21.25 7.79163" stroke="#FF004A" stroke-width="1.5" stroke-linecap="round" stroke-linejoin="round"/>
<path d="M31.1667 12.75C31.1667 7.26754 26.7325 2.83337 21.25 2.83337" stroke="#FF004A" stroke-width="1.5" stroke-linecap="round" stroke-linejoin="round"/>
</svg>
