<svg width="34" height="34" viewBox="0 0 34 34" fill="none" xmlns="http://www.w3.org/2000/svg">
<path d="M25.5 10.1434C25.415 10.1292 25.3159 10.1292 25.2309 10.1434C23.2759 10.0725 21.7175 8.47171 21.7175 6.48838C21.7175 4.46254 23.3467 2.83337 25.3725 2.83337C27.3984 2.83337 29.0275 4.47671 29.0275 6.48838C29.0134 8.47171 27.455 10.0725 25.5 10.1434Z" stroke="#FF004A" stroke-width="1.5" stroke-linecap="round" stroke-linejoin="round"/>
<path d="M24.0415 20.4569C25.9824 20.7828 28.1215 20.4428 29.6232 19.4369C31.6207 18.1053 31.6207 15.9236 29.6232 14.5919C28.1074 13.5861 25.9399 13.2461 23.999 13.5861" stroke="#FF004A" stroke-width="1.5" stroke-linecap="round" stroke-linejoin="round"/>
<path d="M8.45817 10.1434C8.54317 10.1292 8.64233 10.1292 8.72733 10.1434C10.6823 10.0725 12.2407 8.47171 12.2407 6.48838C12.2407 4.46254 10.6115 2.83337 8.58567 2.83337C6.55983 2.83337 4.93066 4.47671 4.93066 6.48838C4.94483 8.47171 6.50317 10.0725 8.45817 10.1434Z" stroke="#FF004A" stroke-width="1.5" stroke-linecap="round" stroke-linejoin="round"/>
<path d="M9.91719 20.4567C7.97636 20.7825 5.83719 20.4425 4.33553 19.4367C2.33803 18.105 2.33803 15.9234 4.33553 14.5917C5.85136 13.5859 8.01886 13.2459 9.95969 13.5859" stroke="#FF004A" stroke-width="1.5" stroke-linecap="round" stroke-linejoin="round"/>
<path d="M17 20.7254C16.915 20.7112 16.8159 20.7112 16.7309 20.7254C14.7759 20.6546 13.2175 19.0537 13.2175 17.0704C13.2175 15.0446 14.8467 13.4154 16.8725 13.4154C18.8984 13.4154 20.5275 15.0587 20.5275 17.0704C20.5134 19.0537 18.955 20.6687 17 20.7254Z" stroke="#FF004A" stroke-width="1.5" stroke-linecap="round" stroke-linejoin="round"/>
<path d="M12.877 25.188C10.8795 26.5197 10.8795 28.7013 12.877 30.033C15.1437 31.5488 18.8554 31.5488 21.122 30.033C23.1195 28.7013 23.1195 26.5197 21.122 25.188C18.8695 23.6864 15.1437 23.6864 12.877 25.188Z" stroke="#FF004A" stroke-width="1.5" stroke-linecap="round" stroke-linejoin="round"/>
</svg>
