<svg width="34" height="34" viewBox="0 0 34 34" fill="none" xmlns="http://www.w3.org/2000/svg">
<path d="M9.77492 29.1834C11.8999 30.4584 14.4499 31.1667 16.9999 31.1667C24.7916 31.1667 31.1666 24.7917 31.1666 17C31.1666 9.20837 24.7916 2.83337 16.9999 2.83337C9.20825 2.83337 2.83325 9.20837 2.83325 17C2.83325 19.55 3.54159 21.9584 4.67492 24.0834L3.27369 29.4727C3.07897 30.2216 3.77218 30.8984 4.51624 30.6859L9.77492 29.1834Z" stroke="#FF004A" stroke-width="1.5" stroke-miterlimit="10" stroke-linecap="round" stroke-linejoin="round"/>
<path d="M23.375 21.0354C23.375 21.2649 23.3239 21.5007 23.2154 21.7302C23.1068 21.9597 22.9664 22.1765 22.7812 22.3805C22.4684 22.7248 22.1236 22.9734 21.7342 23.1328C21.3511 23.2921 20.9361 23.375 20.4892 23.375C19.8379 23.375 19.142 23.222 18.4078 22.9096C17.6736 22.5973 16.9393 22.1765 16.2115 21.6474C15.4773 21.1119 14.7814 20.519 14.1174 19.8624C13.4598 19.1994 12.866 18.5045 12.3361 17.7778C11.8125 17.051 11.3911 16.3243 11.0847 15.6039C10.7782 14.8771 10.625 14.1822 10.625 13.5192C10.625 13.0857 10.7016 12.6714 10.8548 12.2889C11.0081 11.9 11.2507 11.543 11.5891 11.2243C11.9977 10.8226 12.4446 10.625 12.9171 10.625C13.0958 10.625 13.2746 10.6633 13.4342 10.7398C13.6002 10.8163 13.7471 10.931 13.862 11.0967L15.3432 13.1814C15.4581 13.3408 15.5411 13.4874 15.5986 13.6276C15.656 13.7615 15.688 13.8954 15.688 14.0165C15.688 14.1695 15.6433 14.3225 15.5539 14.4691C15.4709 14.6157 15.3496 14.7687 15.1964 14.9217L14.7111 15.4254C14.6409 15.4955 14.609 15.5784 14.609 15.6804C14.609 15.7314 14.6154 15.776 14.6281 15.827C14.6473 15.878 14.6664 15.9162 14.6792 15.9545C14.7941 16.1649 14.9921 16.439 15.273 16.7705C15.5603 17.102 15.8667 17.4399 16.1987 17.7778C16.5435 18.1156 16.8755 18.428 17.2139 18.7149C17.5459 18.9954 17.8204 19.1866 18.0375 19.3014C18.0694 19.3141 18.1077 19.3332 18.1524 19.3524C18.2035 19.3715 18.2546 19.3779 18.312 19.3779C18.4206 19.3779 18.5036 19.3396 18.5738 19.2695L19.059 18.7914C19.2186 18.632 19.3719 18.5109 19.5187 18.4344C19.6656 18.3451 19.8124 18.3005 19.972 18.3005C20.0933 18.3005 20.221 18.326 20.3615 18.3834C20.5019 18.4407 20.6488 18.5236 20.8084 18.632L22.9217 20.1301C23.0877 20.2449 23.2026 20.3787 23.2728 20.5381C23.3367 20.6975 23.375 20.8569 23.375 21.0354Z" stroke="#FF004A" stroke-width="1.5" stroke-miterlimit="10"/>
</svg>
